<?xml version="1.0" standalone="no"?><!DOCTYPE svg PUBLIC "-//W3C//DTD SVG 1.1//EN" "http://www.w3.org/Graphics/SVG/1.1/DTD/svg11.dtd"><svg class="icon" width="200px" height="200.00px" viewBox="0 0 1024 1024" version="1.1" xmlns="http://www.w3.org/2000/svg"><path d="M273.066667 187.733333l39.822222 102.4 102.4 39.822223-102.4 39.822222-39.822222 96.711111-39.822223-96.711111-102.4-39.822222 102.4-39.822223 39.822223-102.4zM557.511111 113.777778l34.133333 85.333333 85.333334 34.133333-85.333334 34.133334-34.133333 85.333333-34.133333-85.333333-85.333334-34.133334 85.333334-34.133333 34.133333-85.333333zM665.6 722.488889l-108.088889 108.088889H455.111111l-102.4-102.4L512 568.888889l153.6 153.6z m-364.088889 0c-11.377778 11.377778-11.377778 22.755556 0 34.133333l125.155556 125.155556h147.911111l386.844444-398.222222c5.688889-11.377778 5.688889-28.444444 0-34.133334l-182.044444-187.733333c-11.377778-11.377778-22.755556-11.377778-34.133334 0l-443.733333 460.8zM176.355556 494.933333l34.133333 85.333334 85.333333 34.133333-85.333333 34.133333-34.133333 85.333334-34.133334-85.333334-85.333333-34.133333 85.333333-34.133333 34.133334-85.333334z" fill="#1296db" /></svg>