<?xml version="1.0" standalone="no"?><!DOCTYPE svg PUBLIC "-//W3C//DTD SVG 1.1//EN" "http://www.w3.org/Graphics/SVG/1.1/DTD/svg11.dtd"><svg class="icon" width="200px" height="200.00px" viewBox="0 0 1024 1024" version="1.1" xmlns="http://www.w3.org/2000/svg"><path d="M529.066667 654.222222L432.355556 568.888889c-5.688889-5.688889-17.066667-5.688889-17.066667 0l-22.755556 22.755555c-5.688889 5.688889-5.688889 17.066667 0 17.066667l130.844445 113.777778c5.688889 5.688889 11.377778 5.688889 17.066666 0l187.733334-238.933333c5.688889-5.688889 5.688889-17.066667 0-22.755556l-28.444445-22.755556c-5.688889-5.688889-17.066667-5.688889-17.066666 0l-153.6 216.177778z" fill="#2c2c2c" /><path d="M227.555556 142.222222c0-17.066667 11.377778-28.444444 28.444444-28.444444H341.333333l45.511111 85.333333c5.688889 17.066667 22.755556 28.444444 39.822223 28.444445h221.866666c17.066667 0 34.133333-11.377778 39.822223-28.444445L739.555556 113.777778h85.333333c17.066667 0 28.444444 11.377778 28.444444 28.444444v739.555556c0 17.066667-11.377778 28.444444-28.444444 28.444444h-568.888889c-17.066667 0-28.444444-11.377778-28.444444-28.444444v-739.555556zM392.533333 113.777778h284.444445l-22.755556 45.511111c-5.688889 11.377778-11.377778 17.066667-22.755555 17.066667H443.733333c-11.377778 0-17.066667 0-22.755555-17.066667L392.533333 113.777778z m432.355556 853.333333c45.511111 0 85.333333-39.822222 85.333333-85.333333v-739.555556c0-45.511111-39.822222-85.333333-85.333333-85.333333h-568.888889C210.488889 56.888889 170.666667 96.711111 170.666667 142.222222v739.555556c0 45.511111 39.822222 85.333333 85.333333 85.333333h568.888889z" fill="#2c2c2c" /></svg>