<?xml version="1.0" standalone="no"?><!DOCTYPE svg PUBLIC "-//W3C//DTD SVG 1.1//EN" "http://www.w3.org/Graphics/SVG/1.1/DTD/svg11.dtd"><svg class="icon" width="200px" height="200.00px" viewBox="0 0 1024 1024" version="1.1" xmlns="http://www.w3.org/2000/svg"><path d="M307.2 830.577778L113.777778 898.844444l68.266666-193.422222 125.155556 125.155556z m494.933333-472.177778L358.4 796.444444l-142.222222-142.222222 438.044444-438.044444 147.911111 142.222222zM773.688889 56.888889c-22.755556 0-39.822222 5.688889-56.888889 22.755555l-568.888889 568.888889-85.333333 256c-11.377778 34.133333 5.688889 56.888889 34.133333 56.888889 5.688889 0 11.377778 0 22.755556-5.688889l256-85.333333 568.888889-568.888889c34.133333-34.133333 34.133333-85.333333 0-113.777778l-108.088889-108.088889c-22.755556-17.066667-39.822222-22.755556-62.577778-22.755555z" fill="#2c2c2c" /><path d="M802.133333 358.4L358.4 796.444444l-142.222222-142.222222 438.044444-438.044444 147.911111 142.222222z" fill="#2c2c2c" /></svg>